<svg xmlns="http://www.w3.org/2000/svg" xmlns:xlink="http://www.w3.org/1999/xlink" viewBox="1236 724 66.9 65.506"><defs><style>.a{fill:url(#a);}</style><linearGradient id="a" x1="0.5" x2="0.5" y2="1" gradientUnits="objectBoundingBox"><stop offset="0" stop-color="#feac5e"/><stop offset="0.523" stop-color="#c779d0"/><stop offset="1" stop-color="#4bc0c8"/></linearGradient></defs><path class="a" d="M8.634,45.77C3.355,50.955,7.815,56.279.8,64.165c-3.164,3.565,13.025,2.478,21.043-5.4,3.4-3.349,2.443-8.22-1.206-11.809S12.035,42.421,8.634,45.77ZM67.091.8c-2.7-2.662-32.682,21.357-41.6,30.128a61.567,61.567,0,0,0-7.262,8.433c-.592.763.192.993.537,1.171a16.741,16.741,0,0,1,4.568,3.286,16.177,16.177,0,0,1,3.342,4.492c.185.341.422,1.108,1.192.53a62.307,62.307,0,0,0,8.579-7.14C45.368,32.936,69.8,3.464,67.091.8Z" transform="translate(1235.6 723.4)"/></svg>