<svg xmlns="http://www.w3.org/2000/svg" xmlns:xlink="http://www.w3.org/1999/xlink" viewBox="379 726 71.25 57"><defs><style>.a{fill:url(#a);}</style><linearGradient id="a" x1="0.5" x2="0.5" y2="1" gradientUnits="objectBoundingBox"><stop offset="0" stop-color="#ee0979"/><stop offset="1" stop-color="#ff6a00"/></linearGradient></defs><path class="a" d="M35.625,23.375A10.688,10.688,0,1,0,46.313,34.063,10.689,10.689,0,0,0,35.625,23.375Zm28.5-10.688h-8.55a3.163,3.163,0,0,1-2.811-2.031l-2.212-6.63A3.173,3.173,0,0,0,47.738,2H23.513A3.167,3.167,0,0,0,20.7,4.024l-2.216,6.633a3.167,3.167,0,0,1-2.811,2.031H7.125A7.146,7.146,0,0,0,0,19.813V51.875A7.146,7.146,0,0,0,7.125,59h57a7.146,7.146,0,0,0,7.125-7.125V19.813A7.146,7.146,0,0,0,64.125,12.688Zm-28.5,39.188A17.813,17.813,0,1,1,53.438,34.063,17.81,17.81,0,0,1,35.625,51.875ZM62.344,24.088a2.5,2.5,0,1,1,2.494-2.5A2.495,2.495,0,0,1,62.344,24.088Z" transform="translate(379 724)"/></svg>