<svg xmlns="http://www.w3.org/2000/svg" viewBox="3869 949 31.039 31"><path d="M23.37,19.424c0,1.358.386,1.9,1.4,1.9,2.252,0,3.686-2.869,3.686-7.642C28.453,6.388,23.137,2.9,16.5,2.9,9.674,2.9,3.465,7.474,3.465,16.126c0,8.264,5.432,12.765,13.773,12.765a21.363,21.363,0,0,0,7.642-1.28l.624,2.6a27.664,27.664,0,0,1-8.3,1.2C6.258,31.411.4,25.4.4,16.124.4,6.774,7.189.411,16.54.411c9.738,0,14.9,5.82,14.9,12.959,0,6.053-1.9,10.67-7.874,10.67-2.718,0-4.5-1.086-4.733-3.493-.7,2.677-2.561,3.493-5.084,3.493-3.375,0-6.208-2.6-6.208-7.837,0-5.277,2.485-8.536,6.947-8.536,2.367,0,3.841.931,4.5,2.406l1.127-2.056h3.259V19.424h0ZM18.6,14.3a2.855,2.855,0,0,0-2.912-3.026c-1.436,0-3.025,1.162-3.025,4.578,0,2.716,1.2,4.229,3.025,4.229A2.84,2.84,0,0,0,18.6,17.018Z" transform="translate(3868.602 948.589)"/></svg>