<svg xmlns="http://www.w3.org/2000/svg" xmlns:xlink="http://www.w3.org/1999/xlink" viewBox="960 2475 49 49"><defs><style>.a{fill:#fff;stroke:#95989a;stroke-width:2px;}.b{clip-path:url(#a);}</style><clipPath id="a"><circle class="a" cx="24.5" cy="24.5" r="24.5" transform="translate(936 2524)"/></clipPath></defs><g class="b" transform="translate(24 -49)"><g transform="translate(936 2524)"><path d="M35.468,18a4.226,4.226,0,0,0-2.422-2.422,7.059,7.059,0,0,0-2.369-.439c-1.346-.061-1.749-.074-5.156-.074s-3.811.013-5.156.074A7.059,7.059,0,0,0,18,15.573,4.226,4.226,0,0,0,15.573,18a7.059,7.059,0,0,0-.439,2.369c-.061,1.346-.074,1.749-.074,5.156s.013,3.811.074,5.156a7.058,7.058,0,0,0,.439,2.369A4.226,4.226,0,0,0,18,35.468a7.059,7.059,0,0,0,2.369.439c1.345.061,1.749.074,5.156.074s3.811-.013,5.156-.074a7.059,7.059,0,0,0,2.369-.439,4.226,4.226,0,0,0,2.422-2.422,7.058,7.058,0,0,0,.439-2.369c.061-1.346.074-1.749.074-5.156s-.013-3.811-.074-5.156A7.059,7.059,0,0,0,35.468,18ZM25.521,32.074a6.553,6.553,0,1,1,6.553-6.553,6.553,6.553,0,0,1-6.553,6.553Zm6.812-11.833a1.531,1.531,0,1,1,1.531-1.531A1.531,1.531,0,0,1,32.332,20.241Z" transform="translate(-1.021 -1.021)"/><circle cx="4.254" cy="4.254" r="4.254" transform="translate(20.246 20.246)"/><path d="M25.521,1.021a24.5,24.5,0,1,0,24.5,24.5,24.5,24.5,0,0,0-24.5-24.5ZM38.2,30.782a9.367,9.367,0,0,1-.593,3.1,6.523,6.523,0,0,1-3.732,3.732,9.367,9.367,0,0,1-3.1.593c-1.361.062-1.8.077-5.261.077s-3.9-.015-5.261-.077a9.367,9.367,0,0,1-3.1-.593,6.523,6.523,0,0,1-3.732-3.732,9.367,9.367,0,0,1-.593-3.1c-.062-1.361-.077-1.8-.077-5.261s.015-3.9.077-5.261a9.367,9.367,0,0,1,.593-3.1,6.523,6.523,0,0,1,3.732-3.732,9.367,9.367,0,0,1,3.1-.593c1.361-.062,1.8-.077,5.261-.077s3.9.015,5.261.077a9.367,9.367,0,0,1,3.1.593,6.523,6.523,0,0,1,3.732,3.732,9.367,9.367,0,0,1,.593,3.1c.062,1.361.077,1.8.077,5.261s-.015,3.9-.077,5.261Z" transform="translate(-1.021 -1.021)"/></g></g></svg>