<svg xmlns="http://www.w3.org/2000/svg" xmlns:xlink="http://www.w3.org/1999/xlink" viewBox="1034 2475 49 49"><defs><style>.a{fill:#fff;stroke:#95989a;stroke-width:2px;}.b{clip-path:url(#a);}</style><clipPath id="a"><circle class="a" cx="24.5" cy="24.5" r="24.5" transform="translate(1010 2524)"/></clipPath></defs><g class="b" transform="translate(24 -49)"><path d="M25.521,1.021a24.5,24.5,0,1,0,24.5,24.5A24.5,24.5,0,0,0,25.521,1.021Zm9.966,20.07c.01.209.013.419.013.623A13.72,13.72,0,0,1,14.376,33.277a9.49,9.49,0,0,0,1.151.064,9.664,9.664,0,0,0,5.992-2.065,4.835,4.835,0,0,1-4.507-3.348,5.026,5.026,0,0,0,.906.084,4.848,4.848,0,0,0,1.271-.168,4.83,4.83,0,0,1-3.872-4.732v-.059a4.839,4.839,0,0,0,2.187.6,4.836,4.836,0,0,1-1.493-6.447,13.72,13.72,0,0,0,9.945,5.045,4.757,4.757,0,0,1-.125-1.1,4.826,4.826,0,0,1,8.348-3.3,9.691,9.691,0,0,0,3.063-1.171,4.848,4.848,0,0,1-2.121,2.672,9.694,9.694,0,0,0,2.772-.763A9.784,9.784,0,0,1,35.487,21.09Z" transform="translate(1008.979 2522.979)"/></g></svg>