<svg xmlns="http://www.w3.org/2000/svg" xmlns:xlink="http://www.w3.org/1999/xlink" viewBox="807 725 74 59.2"><defs><style>.a{fill:url(#a);}</style><linearGradient id="a" x1="0.5" x2="0.5" y2="1" gradientUnits="objectBoundingBox"><stop offset="0" stop-color="#928dab"/><stop offset="1" stop-color="#00d2ff"/></linearGradient></defs><path class="a" d="M38.85,31.6a9.25,9.25,0,1,1-9.25-9.25A9.252,9.252,0,0,1,38.85,31.6ZM59.2,9.4V53.8a7.424,7.424,0,0,1-7.4,7.4H7.4A7.424,7.424,0,0,1,0,53.8V9.4A7.424,7.424,0,0,1,7.4,2H51.8A7.424,7.424,0,0,1,59.2,9.4ZM46.25,31.6A16.65,16.65,0,1,0,29.6,48.25,16.651,16.651,0,0,0,46.25,31.6ZM71.1,13.417l-8.2,5.464v25.9l8.2,5.464A1.868,1.868,0,0,0,74,48.691V14.971A1.868,1.868,0,0,0,71.1,13.417Z" transform="translate(807 723)"/></svg>